# xmcd
#
# Track frame offsets:
#	150
#	11608
#	25020
#	35018
#	45603
#	57755
#	71165
#	82833
#	95488
#	108785
#	121815
#	133548
#	145810
#	157543
#	168610
#	180550
#	193505
#	206850
#	216970
#	231235
#	242128
#	254008
#	264848
#	276635
#	288103
#	298030
#	310165
#	322978
#
# Disc length: 4457 seconds
#
# Revision: 0
# Processed by: cddbd v1.5.2PL0 Copyright (c) Steve Scherf et al.
# Submitted via: audiograbber 1.83.01
#
DISCID=9311671c
DTITLE=Various Artist - Sweeter Than The Day Before
DYEAR=1900
DGENRE=Soul
TTITLE0=Herb Ward - Strange Change
TTITLE1=Maurice McAllister and The Radiants - Baby You've Got It
TTITLE2=Gene Chandler - Such A Pretty Thing
TTITLE3=Bobby Moore - Chained To Your Heart
TTITLE4=Denise LaSalle - Love Reputation
TTITLE5=Marlena Shaw - Let's Wade In The Water
TTITLE6=The Dells - Make Sure (You Have Someone Who Loves You)
TTITLE7=George Kirby - What Can I Do
TTITLE8=Harold Hutton - Lucky Boy
TTITLE9=Andy Mack - Later Than You Think
TTITLE10=The Valentino's - Sweeter Than The Day Before
TTITLE11=Tammy Montgomery - If I Would Marry You
TTITLE12=Timiko - Is It A Sin
TTITLE13=Joann Garrett - A Whole New Plan
TTITLE14=Terry Callier - Look At Me Now
TTITLE15=Johnny Nash - Strange Feeling
TTITLE16=The Vashonettes - A Mighty Good Lover
TTITLE17=Johnny Williams - My Baby's Good
TTITLE18=Little Milton - Sometimey
TTITLE19=The Carltons - Can't You Hear The Beat
TTITLE20=The Seminoles - I Can't Stand It
TTITLE21=Doug Banks - I Just Kept On Dancing
TTITLE22=Etta James - Pay Back
TTITLE23=Mitty Collier - Pain
TTITLE24=Tony Clarke - Landslide
TTITLE25=The Dells - Thinkin' About You
TTITLE26=Sunday - Ain't Got No Problems
TTITLE27=Billy Stewart - Count Me Out
EXTD=
EXTT0=
EXTT1=
EXTT2=
EXTT3=
EXTT4=
EXTT5=
EXTT6=
EXTT7=
EXTT8=
EXTT9=
EXTT10=
EXTT11=
EXTT12=
EXTT13=
EXTT14=
EXTT15=
EXTT16=
EXTT17=
EXTT18=
EXTT19=
EXTT20=
EXTT21=
EXTT22=
EXTT23=
EXTT24=
EXTT25=
EXTT26=
EXTT27=
PLAYORDER=
